<mxfile host="app.diagrams.net" modified="2021-11-04T20:07:45.784Z" agent="5.0 (Macintosh; Intel Mac OS X 10_15_7) AppleWebKit/537.36 (KHTML, like Gecko) Chrome/95.0.4638.54 Safari/537.36" etag="v3MDb2_xNvxV454TDw_B" version="15.6.8" type="github">
  <diagram id="C5RBs43oDa-KdzZeNtuy" name="Page-1">
    <mxGraphModel dx="898" dy="589" grid="1" gridSize="10" guides="1" tooltips="1" connect="1" arrows="1" fold="1" page="1" pageScale="1" pageWidth="827" pageHeight="1169" math="0" shadow="0">
      <root>
        <mxCell id="WIyWlLk6GJQsqaUBKTNV-0" />
        <mxCell id="WIyWlLk6GJQsqaUBKTNV-1" parent="WIyWlLk6GJQsqaUBKTNV-0" />
        <mxCell id="WIyWlLk6GJQsqaUBKTNV-2" value="" style="rounded=0;html=1;jettySize=auto;orthogonalLoop=1;fontSize=11;endArrow=block;endFill=0;endSize=8;strokeWidth=1;shadow=0;labelBackgroundColor=none;edgeStyle=orthogonalEdgeStyle;" parent="WIyWlLk6GJQsqaUBKTNV-1" source="WIyWlLk6GJQsqaUBKTNV-3" edge="1">
          <mxGeometry relative="1" as="geometry">
            <mxPoint x="220" y="200" as="targetPoint" />
          </mxGeometry>
        </mxCell>
        <mxCell id="WIyWlLk6GJQsqaUBKTNV-3" value="Raw data" style="rounded=1;whiteSpace=wrap;html=1;fontSize=12;glass=0;strokeWidth=1;shadow=0;" parent="WIyWlLk6GJQsqaUBKTNV-1" vertex="1">
          <mxGeometry x="160" y="80" width="120" height="40" as="geometry" />
        </mxCell>
        <mxCell id="LTJ8HYo8QJe674u0WcUs-0" value="Clean and filter data using excel &#xa;and RÂ " style="text;align=center;verticalAlign=middle;spacingLeft=4;spacingRight=4;overflow=hidden;points=[[0,0.5],[1,0.5]];portConstraint=eastwest;rotatable=0;fontSize=10;fontStyle=0;fillColor=#d5e8d4;labelBorderColor=none;rounded=1;strokeColor=#82b366;" vertex="1" parent="WIyWlLk6GJQsqaUBKTNV-1">
          <mxGeometry x="131.5" y="131" width="174.5" height="40" as="geometry" />
        </mxCell>
        <mxCell id="LTJ8HYo8QJe674u0WcUs-29" value="" style="endArrow=classic;html=1;rounded=0;fontSize=9;fontColor=#1F1F1F;" edge="1" parent="WIyWlLk6GJQsqaUBKTNV-1">
          <mxGeometry width="50" height="50" relative="1" as="geometry">
            <mxPoint x="268.75" y="207.5" as="sourcePoint" />
            <mxPoint x="340" y="208" as="targetPoint" />
          </mxGeometry>
        </mxCell>
        <mxCell id="LTJ8HYo8QJe674u0WcUs-32" value="Aim 1" style="whiteSpace=wrap;html=1;aspect=fixed;fontSize=12;fontColor=#1F1F1F;fillColor=default;align=center;" vertex="1" parent="WIyWlLk6GJQsqaUBKTNV-1">
          <mxGeometry x="178.75" y="200" width="90" height="90" as="geometry" />
        </mxCell>
        <mxCell id="LTJ8HYo8QJe674u0WcUs-35" value="Aim 1.1" style="rounded=0;whiteSpace=wrap;html=1;fontSize=9;fontColor=#1F1F1F;fillColor=default;align=center;" vertex="1" parent="WIyWlLk6GJQsqaUBKTNV-1">
          <mxGeometry x="340" y="190" width="58" height="30" as="geometry" />
        </mxCell>
        <mxCell id="LTJ8HYo8QJe674u0WcUs-36" value="Aim 1.2" style="rounded=0;whiteSpace=wrap;html=1;fontSize=9;fontColor=#1F1F1F;fillColor=default;align=center;" vertex="1" parent="WIyWlLk6GJQsqaUBKTNV-1">
          <mxGeometry x="341" y="230" width="58" height="30" as="geometry" />
        </mxCell>
        <mxCell id="LTJ8HYo8QJe674u0WcUs-37" value="Aim 1.3" style="rounded=0;whiteSpace=wrap;html=1;fontSize=9;fontColor=#1F1F1F;fillColor=default;align=center;" vertex="1" parent="WIyWlLk6GJQsqaUBKTNV-1">
          <mxGeometry x="342" y="270" width="58" height="30" as="geometry" />
        </mxCell>
        <mxCell id="LTJ8HYo8QJe674u0WcUs-38" value="" style="rounded=0;html=1;jettySize=auto;orthogonalLoop=1;fontSize=11;endArrow=block;endFill=0;endSize=8;strokeWidth=1;shadow=0;labelBackgroundColor=none;edgeStyle=orthogonalEdgeStyle;" edge="1" parent="WIyWlLk6GJQsqaUBKTNV-1">
          <mxGeometry relative="1" as="geometry">
            <mxPoint x="219.5" y="290" as="sourcePoint" />
            <mxPoint x="219.5" y="370" as="targetPoint" />
          </mxGeometry>
        </mxCell>
        <mxCell id="LTJ8HYo8QJe674u0WcUs-39" value="" style="endArrow=classic;html=1;rounded=0;fontSize=9;fontColor=#1F1F1F;" edge="1" parent="WIyWlLk6GJQsqaUBKTNV-1">
          <mxGeometry width="50" height="50" relative="1" as="geometry">
            <mxPoint x="268.75" y="244" as="sourcePoint" />
            <mxPoint x="340" y="244.5" as="targetPoint" />
          </mxGeometry>
        </mxCell>
        <mxCell id="LTJ8HYo8QJe674u0WcUs-40" value="" style="endArrow=classic;html=1;rounded=0;fontSize=9;fontColor=#1F1F1F;" edge="1" parent="WIyWlLk6GJQsqaUBKTNV-1">
          <mxGeometry width="50" height="50" relative="1" as="geometry">
            <mxPoint x="268.75" y="280" as="sourcePoint" />
            <mxPoint x="340" y="280.5" as="targetPoint" />
          </mxGeometry>
        </mxCell>
        <mxCell id="LTJ8HYo8QJe674u0WcUs-41" value="Aim 2" style="whiteSpace=wrap;html=1;aspect=fixed;fontSize=12;fontColor=#1F1F1F;fillColor=default;align=center;" vertex="1" parent="WIyWlLk6GJQsqaUBKTNV-1">
          <mxGeometry x="175" y="370" width="90" height="90" as="geometry" />
        </mxCell>
        <mxCell id="LTJ8HYo8QJe674u0WcUs-42" value="" style="endArrow=classic;html=1;rounded=0;fontSize=9;fontColor=#1F1F1F;" edge="1" parent="WIyWlLk6GJQsqaUBKTNV-1">
          <mxGeometry width="50" height="50" relative="1" as="geometry">
            <mxPoint x="265" y="378.5" as="sourcePoint" />
            <mxPoint x="336.25" y="379" as="targetPoint" />
          </mxGeometry>
        </mxCell>
        <mxCell id="LTJ8HYo8QJe674u0WcUs-43" value="Aim 2.1" style="rounded=0;whiteSpace=wrap;html=1;fontSize=9;fontColor=#1F1F1F;fillColor=default;align=center;" vertex="1" parent="WIyWlLk6GJQsqaUBKTNV-1">
          <mxGeometry x="336.25" y="361" width="58" height="30" as="geometry" />
        </mxCell>
        <mxCell id="LTJ8HYo8QJe674u0WcUs-44" value="Aim 2.2" style="rounded=0;whiteSpace=wrap;html=1;fontSize=9;fontColor=#1F1F1F;fillColor=default;align=center;" vertex="1" parent="WIyWlLk6GJQsqaUBKTNV-1">
          <mxGeometry x="337.25" y="401" width="58" height="30" as="geometry" />
        </mxCell>
        <mxCell id="LTJ8HYo8QJe674u0WcUs-45" value="Aim 2.3" style="rounded=0;whiteSpace=wrap;html=1;fontSize=9;fontColor=#1F1F1F;fillColor=default;align=center;" vertex="1" parent="WIyWlLk6GJQsqaUBKTNV-1">
          <mxGeometry x="338.25" y="441" width="58" height="30" as="geometry" />
        </mxCell>
        <mxCell id="LTJ8HYo8QJe674u0WcUs-46" value="" style="endArrow=classic;html=1;rounded=0;fontSize=9;fontColor=#1F1F1F;" edge="1" parent="WIyWlLk6GJQsqaUBKTNV-1">
          <mxGeometry width="50" height="50" relative="1" as="geometry">
            <mxPoint x="265" y="415" as="sourcePoint" />
            <mxPoint x="336.25" y="415.5" as="targetPoint" />
          </mxGeometry>
        </mxCell>
        <mxCell id="LTJ8HYo8QJe674u0WcUs-47" value="" style="endArrow=classic;html=1;rounded=0;fontSize=9;fontColor=#1F1F1F;" edge="1" parent="WIyWlLk6GJQsqaUBKTNV-1">
          <mxGeometry width="50" height="50" relative="1" as="geometry">
            <mxPoint x="265" y="451" as="sourcePoint" />
            <mxPoint x="336.25" y="451.5" as="targetPoint" />
          </mxGeometry>
        </mxCell>
      </root>
    </mxGraphModel>
  </diagram>
</mxfile>
